<svg xmlns="http://www.w3.org/2000/svg" viewBox="0 0 100 100" role="img" aria-hidden="true"><circle cx="50" cy="50" r="50" fill="#FBEFE0"/><path d="M50 63c-14 0-26 8-30 19 l0 18 60 0 0-18c-4-11-16-19-30-19z" fill="#E07A2F"/><path d="M43 56h14v14a7 7 0 0 1-14 0z" fill="#8D5524"/><ellipse cx="29" cy="48" rx="3.4" ry="4.6" fill="#8D5524"/><ellipse cx="71" cy="48" rx="3.4" ry="4.6" fill="#8D5524"/><ellipse cx="50" cy="44" rx="21.5" ry="23" fill="#221A16"/><ellipse cx="50" cy="45" rx="18.5" ry="22" fill="#8D5524"/><path d="M31 42c1-13 8-20 19-20s18 7 19 20c-3-9-9-13-19-13s-16 4-19 13z" fill="#221A16"/><path d="M42.5 54.5c2.2-2 5.3-2 7.5 0 2.2-2 5.3-2 7.5 0 -2.2 3-5.3 3-7.5 1.2 -2.2 1.8-5.3 1.8-7.5-1.2z" fill="#221A16"/><path d="M40 40.5c1.6-1.4 4.4-1.4 6 0" stroke="#2B211B" stroke-width="1.5" fill="none" stroke-linecap="round" opacity=".75"/><path d="M54 40.5c1.6-1.4 4.4-1.4 6 0" stroke="#2B211B" stroke-width="1.5" fill="none" stroke-linecap="round" opacity=".75"/><circle cx="43" cy="46" r="2" fill="#2B211B"/><circle cx="57" cy="46" r="2" fill="#2B211B"/><path d="M50 48v5" stroke="#8a5a36" stroke-width="1.4" fill="none" stroke-linecap="round" opacity=".45"/><path d="M45.5 58.5c2.6 2.2 6.4 2.2 9 0" stroke="#7A3F2E" stroke-width="1.8" fill="none" stroke-linecap="round"/></svg>